<svg xmlns="http://www.w3.org/2000/svg" aria-hidden="true" style="position:absolute;width:0;height:0;overflow:hidden">
  <defs>
    <symbol id="icon-arrow-left" viewBox="0 0 62 32">
      <path fill="none" stroke="#3a0d51" stroke-linecap="round" stroke-linejoin="round" stroke-width="3.692" d="M15.043 29.538 2.462 16m0 0L15.043 2.462M2.462 16h56.615" style="stroke:var(--color1, #3a0d51)"/>
    </symbol>
    <symbol id="icon-arrow-right" viewBox="0 0 62 32">
      <path fill="none" stroke="#3a0d51" stroke-linecap="round" stroke-linejoin="round" stroke-width="3.692" d="M46.496 2.462 59.077 16m0 0L46.496 29.538M59.077 16H2.462" style="stroke:var(--color1, #3a0d51)"/>
    </symbol>
    <symbol id="icon-close" viewBox="0 0 32 32">
      <path fill="#3a0d51" d="m8.533 25.333-1.867-1.867 7.467-7.467-7.467-7.467 1.867-1.867L16 14.132l7.467-7.467 1.867 1.867-7.467 7.467 7.467 7.467-1.867 1.867L16 17.866l-7.467 7.467z" style="fill:var(--color1, #3a0d51)"/>
    </symbol>
    <symbol id="icon-menu" viewBox="0 0 32 32">
      <path fill="#3a0d51" d="M4 24v-2h24v2H4zm0-7v-2h24v2H4zm0-7V8h24v2H4z" style="fill:var(--color1, #3a0d51)"/>
    </symbol>
  </defs>
</svg>
